HIERARCHY
ROOT pelvis
{
	OFFSET 0.000000 0.000000 0.000000
	CHANNELS 6 Xposition Yposition Zposition Xrotation Yrotation Zrotation
	JOINT l_hip
	{
		OFFSET 0.195211 -0.245059 -0.022011
		CHANNELS 3 Xrotation Yrotation Zrotation
		JOINT l_knee
		{
			OFFSET 0.083896 -0.996307 -0.018298
			CHANNELS 3 Xrotation Yrotation Zrotation
			JOINT l_ankle
			{
				OFFSET -0.031606 -1.048662 -0.119000
				CHANNELS 3 Xrotation Yrotation Zrotation
				JOINT l_foot
				{
					OFFSET 0.063841 -0.149483 0.312863
					CHANNELS 3 Xrotation Yrotation Zrotation
					End Site
					{
						OFFSET 0.000000 0.000000 0.000000
					}
				}
			}
		}
	}
	JOINT r_hip
	{
		OFFSET -0.188785 -0.243354 -0.013119
		CHANNELS 3 Xrotation Yrotation Zrotation
		JOINT r_knee
		{
			OFFSET -0.098896 -1.013926 -0.025127
			CHANNELS 3 Xrotation Yrotation Zrotation
			JOINT r_ankle
			{
				OFFSET 0.038376 -1.049454 -0.114596
				CHANNELS 3 Xrotation Yrotation Zrotation
				JOINT r_foot
				{
					OFFSET -0.060300 -0.126955 0.322518
					CHANNELS 3 Xrotation Yrotation Zrotation
					End Site
					{
						OFFSET 0.000000 0.000000 0.000000
					}
				}
			}
		}
	}
	JOINT spine1
	{
		OFFSET -0.006861 0.282462 -0.060688
		CHANNELS 3 Xrotation Yrotation Zrotation
		JOINT spine2
		{
			OFFSET 0.009796 0.349212 -0.004686
			CHANNELS 3 Xrotation Yrotation Zrotation
			JOINT spine3
			{
				OFFSET 0.005545 0.134239 0.076232
				CHANNELS 3 Xrotation Yrotation Zrotation
				JOINT neck
				{
					OFFSET -0.005369 0.569656 -0.136135
					CHANNELS 3 Xrotation Yrotation Zrotation
					JOINT head
					{
						OFFSET 0.009621 0.170484 0.137338
						CHANNELS 3 Xrotation Yrotation Zrotation
						End Site
						{
							OFFSET 0.000000 0.000000 0.000000
						}
					}
				}
				JOINT l_collar
				{
					OFFSET 0.205981 0.322192 -0.100872
					CHANNELS 3 Xrotation Yrotation Zrotation
					JOINT l_shoulder
					{
						OFFSET 0.233388 0.086823 -0.019950
						CHANNELS 3 Xrotation Yrotation Zrotation
						JOINT l_elbow
						{
							OFFSET 0.687295 -0.032736 -0.075278
							CHANNELS 3 Xrotation Yrotation Zrotation
							JOINT l_wrist
							{
								OFFSET 0.651109 0.024639 0.000120
								CHANNELS 3 Xrotation Yrotation Zrotation
								JOINT l_hand
								{
									OFFSET 0.217934 -0.026487 -0.036124
									CHANNELS 3 Xrotation Yrotation Zrotation
									End Site
									{
										OFFSET 0.000000 0.000000 0.000000
									}
								}
							}
						}
					}
				}
				JOINT r_collar
				{
					OFFSET -0.210726 0.316244 -0.114374
					CHANNELS 3 Xrotation Yrotation Zrotation
					JOINT r_shoulder
					{
						OFFSET -0.244017 0.089684 -0.026814
						CHANNELS 3 Xrotation Yrotation Zrotation
						JOINT r_elbow
						{
							OFFSET -0.672913 -0.035979 -0.055153
							CHANNELS 3 Xrotation Yrotation Zrotation
							JOINT r_wrist
							{
								OFFSET -0.670689 0.023586 -0.009661
								CHANNELS 3 Xrotation Yrotation Zrotation
								JOINT r_hand
								{
									OFFSET -0.219937 -0.019827 -0.028502
									CHANNELS 3 Xrotation Yrotation Zrotation
									End Site
									{
										OFFSET 0.000000 0.000000 0.000000
									}
								}
							}
						}
					}
				}
			}
		}
	}
}
MOTION
Frames: 15
Frame Time: 0.016667
0.000000 0.000000 0.000000 0.000000 0.000000 0.000000 -30.272772 -4.779104 -0.626212 50.762725 -5.585013 -10.755434 0.000000 0.000000 0.000000 0.000000 0.000000 0.000000 -7.552453 1.364157 -1.984405 22.226862 10.978618 0.959146 0.000000 0.000000 0.000000 0.000000 0.000000 0.000000 3.263514 4.799982 4.070884 -1.599973 -2.828108 -0.012189 -4.588197 3.033699 -1.168441 5.635948 15.147869 2.631794 23.929876 16.623408 -5.032477 -1.333895 0.860070 -21.967536 13.951663 -11.166276 -64.629579 42.038702 -5.266575 20.859963 0.000000 0.000000 0.000000 0.000000 0.000000 0.000000 6.498525 3.989742 21.829386 11.748123 13.833928 56.644033 54.902953 7.780490 -25.675187 0.000000 0.000000 0.000000 0.000000 0.000000 0.000000 
0.000000 0.000000 0.000000 0.000000 0.000000 0.000000 -31.104377 -4.336208 -0.624742 45.605969 -4.523015 -11.177663 0.000000 0.000000 0.000000 0.000000 0.000000 0.000000 -5.934228 0.739108 -2.066517 21.410154 10.612497 1.117708 0.000000 0.000000 0.000000 0.000000 0.000000 0.000000 3.184916 5.214022 3.921331 -1.750049 -3.050109 -0.025155 -4.381594 3.059733 -1.108213 5.211476 15.092077 2.743866 24.041301 16.648092 -5.195350 -1.268280 0.716209 -22.045308 14.142311 -10.925571 -64.596943 41.820669 -4.118833 20.307571 0.000000 0.000000 0.000000 0.000000 0.000000 0.000000 6.399474 4.105485 21.957985 11.543388 13.709637 56.337488 54.663915 8.431786 -26.023117 0.000000 0.000000 0.000000 0.000000 0.000000 0.000000 
0.000000 0.000000 0.000000 0.000000 0.000000 0.000000 -31.527518 -3.742188 -0.628264 40.142459 -2.886754 -11.336500 0.000000 0.000000 0.000000 0.000000 0.000000 0.000000 -4.436606 0.166235 -1.972868 20.875668 10.189877 1.304048 0.000000 0.000000 0.000000 0.000000 0.000000 0.000000 2.958697 5.517609 3.845838 -1.815519 -3.274344 0.020804 -4.156587 3.067894 -1.045080 4.809796 15.042548 2.895839 24.026462 16.615852 -5.307307 -1.195839 0.543031 -22.039331 14.221140 -10.683360 -64.592783 41.675072 -3.129480 19.773999 0.000000 0.000000 0.000000 0.000000 0.000000 0.000000 6.315621 4.198097 22.046545 11.317043 13.550053 56.165784 54.352115 8.970652 -26.357588 0.000000 0.000000 0.000000 0.000000 0.000000 0.000000 
0.000000 0.000000 0.000000 0.000000 0.000000 0.000000 -31.473756 -2.988845 -0.725319 34.558140 -0.799120 -11.216267 0.000000 0.000000 0.000000 0.000000 0.000000 0.000000 -3.016031 -0.335346 -1.720507 20.670828 9.689733 1.486011 0.000000 0.000000 0.000000 0.000000 0.000000 0.000000 2.581445 5.704597 3.842723 -1.745493 -3.498350 0.120943 -3.955389 3.052353 -0.985227 4.577623 15.027371 3.091301 23.820090 16.496166 -5.373540 -1.124085 0.332284 -21.952560 14.214206 -10.477317 -64.621323 41.566178 -2.287560 19.284886 0.000000 0.000000 0.000000 0.000000 0.000000 0.000000 6.250488 4.287372 22.092298 11.114569 13.400552 56.140774 53.955044 9.320213 -26.654337 0.000000 0.000000 0.000000 0.000000 0.000000 0.000000 
0.000000 0.000000 0.000000 0.000000 0.000000 0.000000 -30.937932 -2.131507 -1.003934 29.141610 1.445477 -10.871959 0.000000 0.000000 0.000000 0.000000 0.000000 0.000000 -1.675933 -0.750172 -1.362888 20.903861 9.110726 1.645383 0.000000 0.000000 0.000000 0.000000 0.000000 0.000000 2.073426 5.771532 3.885703 -1.521530 -3.723313 0.267154 -3.823028 3.002820 -0.933872 4.591124 15.031186 3.332922 23.446512 16.305088 -5.398537 -1.056523 0.086259 -21.827675 14.156379 -10.370324 -64.654187 41.494780 -1.542607 18.842295 0.000000 0.000000 0.000000 0.000000 0.000000 0.000000 6.196954 4.365415 22.121752 11.001140 13.303884 56.214960 53.475597 9.453933 -26.876019 0.000000 0.000000 0.000000 0.000000 0.000000 0.000000 
0.000000 0.000000 0.000000 0.000000 0.000000 0.000000 -30.016317 -1.310885 -1.487616 24.284071 3.410240 -10.414582 0.000000 0.000000 0.000000 0.000000 0.000000 0.000000 -0.491064 -1.083593 -0.991046 21.733325 8.512908 1.802618 0.000000 0.000000 0.000000 0.000000 0.000000 0.000000 1.469834 5.726867 3.930300 -1.190547 -3.944609 0.456362 -3.771959 2.908128 -0.894601 4.765178 14.989354 3.639330 23.108492 16.110112 -5.412210 -0.973179 -0.147614 -21.714507 14.070458 -10.370368 -64.638258 41.530704 -0.923775 18.446288 0.000000 0.000000 0.000000 0.000000 0.000000 0.000000 6.152614 4.373025 22.176733 11.035800 13.264885 56.290864 53.018432 9.420486 -27.002020 0.000000 0.000000 0.000000 0.000000 0.000000 0.000000 
0.000000 0.000000 0.000000 0.000000 0.000000 0.000000 -28.912068 -0.706079 -2.212650 20.523513 4.801433 -10.008766 0.000000 0.000000 0.000000 0.000000 0.000000 0.000000 0.388723 -1.327198 -0.692181 23.408627 7.914374 2.031180 0.000000 0.000000 0.000000 0.000000 0.000000 0.000000 0.824674 5.565777 3.935016 -0.825092 -4.174094 0.675038 -3.803694 2.770404 -0.878018 5.059563 14.821299 3.931370 22.848500 15.997942 -5.344494 -0.882312 -0.334910 -21.661746 13.972510 -10.554327 -64.510061 41.742786 -0.357972 18.027256 0.000000 0.000000 0.000000 0.000000 0.000000 0.000000 6.089574 4.251526 22.273701 11.235540 13.272618 56.316972 52.583036 9.287043 -26.978316 0.000000 0.000000 0.000000 0.000000 0.000000 0.000000 
0.000000 0.000000 0.000000 0.000000 0.000000 0.000000 -27.849506 -0.484429 -3.081553 18.269964 5.461982 -9.739157 0.000000 0.000000 0.000000 0.000000 0.000000 0.000000 0.811720 -1.555198 -0.602904 26.119795 7.336110 2.447588 0.000000 0.000000 0.000000 0.000000 0.000000 0.000000 0.209091 5.295278 3.834568 -0.480460 -4.403022 0.940222 -3.924932 2.586447 -0.888626 5.312420 14.529349 4.209881 22.789074 15.981983 -5.214753 -0.766756 -0.352999 -21.655563 13.892964 -10.913656 -64.252740 42.204311 0.040553 17.638418 0.000000 0.000000 0.000000 0.000000 0.000000 0.000000 6.051131 3.925911 22.456322 11.580046 13.346075 56.225218 52.290610 9.073201 -26.839769 0.000000 0.000000 0.000000 0.000000 0.000000 0.000000 
0.000000 0.000000 0.000000 0.000000 0.000000 0.000000 -27.061222 -0.749375 -3.973217 17.627680 5.310578 -9.653379 0.000000 0.000000 0.000000 0.000000 0.000000 0.000000 0.651254 -1.780549 -0.797563 29.927800 6.932746 3.087775 0.000000 0.000000 0.000000 0.000000 0.000000 0.000000 -0.354909 4.971992 3.618096 -0.223894 -4.595628 1.256829 -4.085742 2.374868 -0.932603 5.378289 14.081670 4.445858 23.057633 16.086574 -5.088276 -0.621469 -0.195815 -21.681665 13.792727 -11.329394 -63.880089 42.847780 0.140901 17.322048 0.000000 0.000000 0.000000 0.000000 0.000000 0.000000 6.031660 3.337539 22.690009 12.044600 13.360845 56.028906 52.230634 8.925457 -26.666374 0.000000 0.000000 0.000000 0.000000 0.000000 0.000000 
0.000000 0.000000 0.000000 0.000000 0.000000 0.000000 -26.600463 -1.458808 -4.861852 18.438501 4.560726 -9.739383 0.000000 0.000000 0.000000 0.000000 0.000000 0.000000 -0.166425 -2.017693 -1.350648 34.834112 6.732534 3.917527 0.000000 0.000000 0.000000 0.000000 0.000000 0.000000 -0.792986 4.618549 3.274598 -0.029891 -4.726802 1.613984 -4.289357 2.166133 -1.015851 5.293217 13.559182 4.562222 23.437122 16.257300 -4.947650 -0.495814 0.090785 -21.696352 13.664623 -11.831351 -63.472267 43.534923 -0.020585 17.142240 0.000000 0.000000 0.000000 0.000000 0.000000 0.000000 6.043767 2.544964 22.938529 12.550155 13.323216 55.834922 52.269504 8.799695 -26.517138 0.000000 0.000000 0.000000 0.000000 0.000000 0.000000 
0.000000 0.000000 0.000000 0.000000 0.000000 0.000000 -26.342028 -2.458584 -5.754990 20.200917 3.450070 -9.952333 0.000000 0.000000 0.000000 0.000000 0.000000 0.000000 -1.649846 -2.221280 -2.268021 40.675944 6.795223 4.758208 0.000000 0.000000 0.000000 0.000000 0.000000 0.000000 -1.026034 4.261027 2.829154 0.113219 -4.762209 1.973415 -4.498788 2.003409 -1.138076 5.088778 13.030477 4.492947 23.744024 16.462616 -4.776585 -0.447447 0.387164 -21.656386 13.467955 -12.416637 -63.130345 44.111709 -0.390041 17.154288 0.000000 0.000000 0.000000 0.000000 0.000000 0.000000 6.085286 1.668036 23.139906 13.007258 13.230825 55.800440 52.251123 8.640827 -26.446467 0.000000 0.000000 0.000000 0.000000 0.000000 0.000000 
0.000000 0.000000 0.000000 0.000000 0.000000 0.000000 -26.017579 -3.524087 -6.674124 22.247619 2.195567 -10.222095 0.000000 0.000000 0.000000 0.000000 0.000000 0.000000 -3.737483 -2.284932 -3.445016 47.134021 7.122097 5.354019 0.000000 0.000000 0.000000 0.000000 0.000000 0.000000 -0.982135 3.904176 2.342984 0.200227 -4.677053 2.270715 -4.658807 1.925332 -1.291460 4.805378 12.544667 4.195835 23.844367 16.694630 -4.546037 -0.532607 0.544752 -21.544010 13.154003 -13.062402 -62.930661 44.481284 -0.888406 17.380917 0.000000 0.000000 0.000000 0.000000 0.000000 0.000000 6.137574 0.869625 23.238585 13.343872 13.092357 56.084396 52.042172 8.379089 -26.477534 0.000000 0.000000 0.000000 0.000000 0.000000 0.000000 
0.000000 0.000000 0.000000 0.000000 0.000000 0.000000 -25.326614 -4.442710 -7.615863 23.952509 0.932491 -10.449977 0.000000 0.000000 0.000000 0.000000 0.000000 0.000000 -6.293517 -2.079831 -4.662721 53.772745 7.618523 5.501495 0.000000 0.000000 0.000000 0.000000 0.000000 0.000000 -0.641163 3.527510 1.906096 0.236267 -4.465656 2.437028 -4.736905 1.946703 -1.465205 4.493891 12.132430 3.682976 23.704897 16.949242 -4.250987 -0.784338 0.449958 -21.395461 12.700597 -13.721331 -62.877719 44.614631 -1.443153 17.813412 0.000000 0.000000 0.000000 0.000000 0.000000 0.000000 6.173640 0.304600 23.225700 13.544649 12.926229 56.761231 51.586648 7.972192 -26.599239 0.000000 0.000000 0.000000 0.000000 0.000000 0.000000 
0.000000 0.000000 0.000000 0.000000 0.000000 0.000000 -24.056620 -5.093049 -8.551237 24.894462 -0.300216 -10.530344 0.000000 0.000000 0.000000 0.000000 0.000000 0.000000 -9.137417 -1.527679 -5.671746 60.134777 8.123536 5.159352 0.000000 0.000000 0.000000 0.000000 0.000000 0.000000 -0.066582 3.095937 1.607471 0.267987 -4.144783 2.430994 -4.758035 2.051390 -1.654308 4.221687 11.810587 3.023288 23.397067 17.212795 -3.933719 -1.196667 0.073526 -21.299524 12.139323 -14.349232 -62.896312 44.521542 -2.006330 18.417654 0.000000 0.000000 0.000000 0.000000 0.000000 0.000000 6.173853 0.065217 23.152718 13.656033 12.770602 57.763375 50.910247 7.431759 -26.758619 0.000000 0.000000 0.000000 0.000000 0.000000 0.000000 
0.000000 0.000000 0.000000 0.000000 0.000000 0.000000 -22.233397 -5.532001 -9.491555 24.963619 -1.610252 -10.389730 0.000000 0.000000 0.000000 0.000000 0.000000 0.000000 -12.135645 -0.638767 -6.330146 65.791914 8.446223 4.580757 0.000000 0.000000 0.000000 0.000000 0.000000 0.000000 0.583035 2.549256 1.511144 0.337977 -3.798196 2.264817 -4.784073 2.181486 -1.857343 4.015977 11.523310 2.253230 23.126012 17.578510 -3.646355 -1.714054 -0.612313 -21.411865 11.510094 -14.987493 -62.854500 44.115178 -2.419944 19.015412 0.000000 0.000000 0.000000 0.000000 0.000000 0.000000 6.102657 0.148805 23.102647 13.782029 12.645597 58.809878 50.094373 6.909531 -26.775191 0.000000 0.000000 0.000000 0.000000 0.000000 0.000000 
